<svg width="50" height="43" viewBox="0 0 50 43" fill="none" xmlns="http://www.w3.org/2000/svg">
<path fill-rule="evenodd" clip-rule="evenodd" d="M1.64608 0.000357145C0.751434 0.000357145 0 0.751791 0 1.64644V41.211C0 42.136 0.721791 42.8574 1.64608 42.8574H48.3536C49.2786 42.8574 50 42.136 50 41.211V8.79613C50 7.90184 49.25 7.14291 48.3536 7.14291H24.9998L17.8569 -5.92645e-08H1.64573L1.64608 0.000357145ZM32.5467 12.4794C34.9717 12.4794 36.9288 14.4447 36.9288 16.8673C36.9288 19.2894 34.9717 21.2548 32.5467 21.2548C31.4674 21.2548 30.4731 20.863 29.7088 20.2155L21.2473 24.5262C21.258 24.6512 21.2752 24.7812 21.2752 24.9098C21.2752 25.1388 21.2462 25.3673 21.2127 25.5866L29.597 29.8684C30.3763 29.1613 31.4109 28.7256 32.5467 28.7256C34.9717 28.7256 36.936 30.697 36.936 33.1185C36.936 35.5435 34.9717 37.5006 32.5467 37.5006C30.1252 37.5006 28.1602 35.5435 28.1602 33.1185C28.1602 33.0399 28.1698 32.9542 28.1741 32.8756L19.4894 28.4606C18.7612 29.0006 17.8558 29.3113 16.8808 29.3113C14.4583 29.3113 12.5001 27.3531 12.5001 24.9309C12.5001 22.5084 14.4583 20.5501 16.8808 20.5501C17.9676 20.5501 18.9673 20.9416 19.7337 21.5966L28.1881 17.2855C28.1763 17.1548 28.1602 17.0151 28.1602 16.8812C28.1602 14.4587 30.1252 12.5004 32.5467 12.5004V12.4794Z" fill="#55739A"/>
</svg>
